# xmcd
#
# Track frame offsets:
#  150
#  11879
#  22659
#  34173
#  45818
#  58204
#  67818
#  79827
#  92924
#  104062
#  114053
#  126881
#  140239
#  151324
#  161219
#  171430
#  182107
#  195525
#  206355
#  218380
#  231698
#  242192
#  254178
#  265928
#  276615
#  290056
#
# Disc length: 4007 seconds
#
# Revision: 0
# Processed by: cddbd v1.5.2PL0 Copyright (c) Steve Scherf et al.
# Submitted via: AltoMP3_Maker 3.0
#
DISCID=8c0fa51a
DTITLE=Wade Ray - Things I Might Have Been
DYEAR=1900
DGENRE=
TTITLE0=Heart of a Clown
TTITLE1=Echo of Your Voice
TTITLE2=Bill Bailey Won't You Please Come Home
TTITLE3=It's All Your Fault
TTITLE4=Things I Might Have Been
TTITLE5=Call Me Up
TTITLE6=If They Should Ask
TTITLE7=Burned Fingers
TTITLE8=Don't Wait to Baby Your Baby
TTITLE9=That Love Makin' Melody
TTITLE10=Did I Do Wrong
TTITLE11=Let Me Go Devil
TTITLE12=Too Late to
TTITLE13=Saturday Night
TTITLE14=First Last and Always
TTITLE15=Idaho Red
TTITLE16=A Penny for Your Thoughts
TTITLE17=Rosetta
TTITLE18=Letters Have No Arms
TTITLE19=There's No Fool Like a Young Fool
TTITLE20=No Mama No Papa
TTITLE21=Excuse Me
TTITLE22=I Couldn't Be So Happy
TTITLE23=Dipsy Doodle (instr.)
TTITLE24=Sentimental Journey (instr.)
TTITLE25=Albino Stallion
EXTD=
EXTT0=
EXTT1=
EXTT2=
EXTT3=
EXTT4=
EXTT5=
EXTT6=
EXTT7=
EXTT8=
EXTT9=
EXTT10=
EXTT11=
EXTT12=
EXTT13=
EXTT14=
EXTT15=
EXTT16=
EXTT17=
EXTT18=
EXTT19=
EXTT20=
EXTT21=
EXTT22=
EXTT23=
EXTT24=
EXTT25=
PLAYORDER=
